# xmcd
# Copyright (C) 1995-1998 Ti Kan
#
# Track frame offsets:
#       150
#       89134
#       163625
#       231738
#
# Disc length: 3709 seconds
#
# Revision: 0
# Processed by: cddbd v1.5.2PL0 Copyright (c) Steve Scherf et al.
# Submitted via: CD-Transfer v1.0
#
DISCID=340e7b04
DTITLE=Michael Friedel - 
DYEAR=1900
DGENRE=
TTITLE0=Hitclub 05
TTITLE1=Hitclub 06
TTITLE2=Hitclub 07
TTITLE3=Hitclub 08
EXTD=
EXTT0=
EXTT1=
EXTT2=
EXTT3=
PLAYORDER=
